<svg width="200" height="492" viewBox="0 0 200 492" fill="none" xmlns="http://www.w3.org/2000/svg">
<path d="M0.00282053 157.271C14.3662 117.213 69.0181 35.1606 172.718 27.4193" stroke="#566F54"/>
<path d="M-78.1612 287.392C-57.8607 249.991 8.65747 177.226 112.326 185.379" stroke="#566F54"/>
<path d="M70.2328 65.9854C72.6609 71.5218 81.8717 80.3561 99.2897 71.4017C95.844 66.4699 85.2085 58.4822 70.2328 65.9854Z" stroke="#566F54"/>
<path d="M5.16024 207.877C6.71629 213.718 14.4732 223.853 33.0523 217.658C30.3984 212.259 21.1046 202.743 5.16024 207.877Z" stroke="#566F54"/>
<path d="M172.501 27.2522C173.445 31.1708 178.321 37.9411 190.278 33.6727C188.627 30.0576 182.761 23.7125 172.501 27.2522Z" stroke="#566F54"/>
<path d="M112.137 185.181C112.472 189.198 116.26 196.632 128.728 194.236C127.647 190.412 122.817 183.247 112.137 185.181Z" stroke="#566F54"/>
<path d="M144.987 31.1239C151.645 29.0496 164.234 20.6898 161.33 3.84486C154.926 6.90654 142.693 16.6487 144.987 31.1239Z" stroke="#566F54"/>
<path d="M84.3541 184.815C91.2503 183.78 104.967 177.436 104.663 160.345C97.8682 162.395 84.2933 170.159 84.3541 184.815Z" stroke="#566F54"/>
<path d="M171.301 27.114C178.03 26.4995 191.844 20.848 193.26 3.15883C186.526 4.82906 172.707 11.9584 171.301 27.114Z" stroke="#566F54"/>
<path d="M110.971 184.862C117.716 185.281 132.23 181.8 136.325 164.534C129.415 165.158 114.671 170.098 110.971 184.862Z" stroke="#566F54"/>
<path d="M9.90632 135.787C15.5689 140.587 31.6782 146.297 50.8151 130.735C44.0705 126.927 26.4464 122.608 9.90632 135.787Z" stroke="#566F54"/>
<path d="M100.467 18.9688C93.3487 22.9734 81.2003 35.2854 89.5523 52.4968C96.0829 47.506 107.409 33.8133 100.467 18.9688Z" stroke="#566F54"/>
<path d="M42.2063 166.017C34.561 168.89 20.6783 179.207 26.3096 197.49C33.5246 193.553 46.8049 181.746 42.2063 166.017Z" stroke="#566F54"/>
<path d="M37.1794 62.6047C31.3977 68.3693 23.3742 83.1128 37.5333 95.9706C42.3945 89.5026 49.1295 73.7744 37.1794 62.6047Z" stroke="#566F54"/>
<path d="M10 135.5L29 133.5" stroke="#566F54"/>
<path d="M38 95.0001L36 79.0001" stroke="#566F54"/>
<path d="M70.5 66.0001L84 69.0001" stroke="#566F54"/>
<path d="M5.42212 207.932L18.3072 212.954" stroke="#566F54"/>
<path d="M90 52.0001L93 38.5001" stroke="#566F54"/>
<path d="M26.8279 197.067L31.8502 184.182" stroke="#566F54"/>
<path d="M145.5 30.5001L151.5 19.5001" stroke="#566F54"/>
<path d="M84.9562 184.276L92.5625 174.319" stroke="#566F54"/>
<path d="M172 26.5001L181.5 16.5001" stroke="#566F54"/>
<path d="M111.756 184.362L122.669 175.926" stroke="#566F54"/>
<path d="M172.5 27.5001L180.5 30.5001" stroke="#566F54"/>
<path d="M112.098 185.426L119.547 189.611" stroke="#566F54"/>
<path d="M18.6179 453.499C22.4882 461.299 36.0492 474.986 59.3307 467.337C54.1078 460.09 38.6531 447.178 18.6179 453.499Z" stroke="#566F54"/>
<path d="M160.235 343.387L177.961 337.813" stroke="#566F54"/>
<path d="M159.859 330.209L160.295 341.744" stroke="#566F54"/>
<path d="M143.822 371.635L162.665 370.624" stroke="#566F54"/>
<path d="M68.4204 435.336L70.6953 419.779" stroke="#566F54"/>
<path d="M26.0032 450.558L28.2781 435" stroke="#566F54"/>
<path d="M93.7175 421.377L114.029 426.998" stroke="#566F54"/>
<path d="M19.4504 453.848L41.0001 462.5" stroke="#566F54"/>
<path d="M26.2916 450.675C20.5599 442.725 14.308 422.837 35.1546 406.894C39.5647 415.708 43.9662 436.803 26.2916 450.675Z" stroke="#566F54"/>
<path d="M-69.9993 456.937C-16.7634 466.565 103.806 457.068 160.198 342.059" stroke="#566F54"/>
<path d="M68.4453 435.454C63.1037 429.013 57.018 412.556 75.4081 398.256C79.5803 405.479 84.0289 423.031 68.4453 435.454Z" stroke="#566F54"/>
<path d="M160.294 342.42C156.159 338.759 150.498 328.674 160.933 317.626C164.391 321.907 169.105 332.86 160.294 342.42Z" stroke="#566F54"/>
<path d="M143.213 371.743C148.671 365.393 164.163 356.295 182.463 370.701C175.971 376.108 159.031 383.888 143.213 371.743Z" stroke="#566F54"/>
<path d="M159.906 343.9C163.696 336.51 176.592 324.219 197.849 334.175C192.827 340.878 178.207 352.208 159.906 343.9Z" stroke="#566F54"/>
<path d="M137.038 431.265C129.121 436.882 109.226 442.879 92.9867 421.924C101.785 417.634 122.913 413.495 137.038 431.265Z" stroke="#566F54"/>
</svg>
