<svg width="1024" height="148" viewBox="0 0 1024 148" fill="none" xmlns="http://www.w3.org/2000/svg">
<path d="M61.706 102.528V79.747C61.706 77.9357 61.3577 76.6817 60.661 75.985C59.9643 75.2883 58.362 74.8703 55.854 74.731H2.76801V135.968C2.76801 139.173 3.04667 141.263 3.604 142.238C4.30067 143.213 5.62434 143.701 7.57501 143.701H20.324V146H-20.013V143.701H-9.563C-7.61233 143.701 -6.35833 143.213 -5.80099 142.238C-5.10433 141.263 -4.756 139.173 -4.756 135.968V12.031C-4.756 8.82633 -5.10433 6.73633 -5.80099 5.761C-6.35833 4.78566 -7.61233 4.29799 -9.563 4.29799H-20.013V1.999H91.384L101.416 58.638L99.744 58.847C97.5147 45.7497 95.564 35.5783 93.892 28.333C92.3593 20.9483 90.4087 15.5143 88.04 12.031C85.8107 8.40832 82.8847 6.24866 79.262 5.55199C75.6393 4.71599 70.7627 4.29799 64.632 4.29799H7.57501C5.62434 4.29799 4.30067 4.78566 3.604 5.761C3.04667 6.73633 2.76801 8.82633 2.76801 12.031V72.432H55.854C58.362 72.2927 59.9643 71.8747 60.661 71.178C61.3577 70.4813 61.706 69.2273 61.706 67.416V50.905H63.587V102.528H61.706ZM185.596 102.528V79.747C185.596 77.9357 185.247 76.6817 184.551 75.985C183.854 75.2883 182.252 74.8703 179.744 74.731H126.658V135.968C126.658 139.173 126.936 141.263 127.494 142.238C128.19 143.213 129.514 143.701 131.465 143.701H192.702C198.832 143.701 203.639 143.283 207.123 142.447C210.745 141.611 213.811 139.451 216.319 135.968C218.827 132.345 221.195 126.911 223.425 119.666C225.654 112.421 228.51 102.389 231.994 89.57L233.666 89.779L219.454 146H103.877V143.701H114.327C116.277 143.701 117.531 143.213 118.089 142.238C118.785 141.263 119.134 139.173 119.134 135.968V12.031C119.134 8.82633 118.785 6.73633 118.089 5.761C117.531 4.78566 116.277 4.29799 114.327 4.29799H103.877V1.999H215.274L225.306 58.638L223.634 58.847C221.404 45.7497 219.454 35.5783 217.782 28.333C216.249 20.9483 214.298 15.5143 211.93 12.031C209.7 8.40832 206.774 6.24866 203.152 5.55199C199.529 4.71599 194.652 4.29799 188.522 4.29799H131.465C129.514 4.29799 128.19 4.78566 127.494 5.761C126.936 6.73633 126.658 8.82633 126.658 12.031V72.432H179.744C182.252 72.2927 183.854 71.8747 184.551 71.178C185.247 70.4813 185.596 69.2273 185.596 67.416V50.905H187.477V102.528H185.596ZM249.084 135.759C248.388 138.964 248.109 141.123 248.248 142.238C248.388 143.213 249.851 143.701 252.637 143.701H265.595V146H227.348V143.701H235.29C238.077 143.701 240.237 143.283 241.769 142.447C243.441 141.472 244.695 139.103 245.531 135.341L272.074 8.05999L270.193 1.37199H277.717L310.53 110.052L340.208 7.851L338.536 1.37199H345.642L380.336 132.624C381.59 137.501 383.193 140.566 385.143 141.82C387.094 143.074 389.95 143.701 393.712 143.701H399.355V146H356.928V143.701H366.124C369.19 143.701 371.28 143.004 372.394 141.611C373.509 140.218 373.509 137.292 372.394 132.833L341.88 14.539L311.993 120.711H305.723L274.164 14.957L249.084 135.759ZM404.115 143.701H414.565C416.516 143.701 417.77 143.213 418.327 142.238C419.024 141.263 419.372 139.173 419.372 135.968V12.031C419.372 8.82633 419.024 6.73633 418.327 5.761C417.77 4.78566 416.516 4.29799 414.565 4.29799H404.115V1.999H442.153V4.29799H431.703C429.752 4.29799 428.429 4.78566 427.732 5.761C427.175 6.73633 426.896 8.82633 426.896 12.031V135.968C426.896 139.173 427.175 141.263 427.732 142.238C428.429 143.213 429.752 143.701 431.703 143.701H442.153V146H404.115V143.701ZM466.817 7.015V135.968C466.817 139.173 467.095 141.263 467.653 142.238C468.349 143.213 469.673 143.701 471.624 143.701H482.074V146H447.38V143.701H457.83C459.78 143.701 461.034 143.213 461.592 142.238C462.288 141.263 462.637 139.173 462.637 135.968V12.031C462.637 8.82633 462.288 6.73633 461.592 5.761C461.034 4.78566 459.78 4.29799 457.83 4.29799H447.38V1.999H472.878L526.591 126.772V12.031C526.591 8.82633 526.242 6.73633 525.546 5.761C524.988 4.78566 523.734 4.29799 521.784 4.29799H511.334V1.999H546.028V4.29799H535.578C533.627 4.29799 532.303 4.78566 531.607 5.761C531.049 6.73633 530.771 8.82633 530.771 12.031V146H526.591L466.817 7.015ZM551.272 143.701H561.722C563.673 143.701 564.927 143.213 565.484 142.238C566.181 141.263 566.529 139.173 566.529 135.968V12.031C566.529 8.82633 566.181 6.73633 565.484 5.761C564.927 4.78566 563.673 4.29799 561.722 4.29799H551.272V1.999H589.31V4.29799H578.86C576.91 4.29799 575.586 4.78566 574.889 5.761C574.332 6.73633 574.053 8.82633 574.053 12.031V135.968C574.053 139.173 574.332 141.263 574.889 142.238C575.586 143.213 576.91 143.701 578.86 143.701H589.31V146H551.272V143.701ZM632.944 4.29799H630.854C626.813 4.29799 623.33 4.43732 620.404 4.71599C617.478 4.85533 614.97 5.62166 612.88 7.015C610.929 8.40833 609.187 10.6377 607.655 13.703C606.261 16.629 604.938 20.9483 603.684 26.661C602.43 32.2343 601.176 39.3403 599.922 47.979C598.807 56.6177 597.414 67.207 595.742 79.747L594.07 79.538L604.102 1.999H678.924L688.956 79.538L687.284 79.747C685.612 67.0677 684.149 56.4783 682.895 47.979C681.78 39.3403 680.596 32.2343 679.342 26.661C678.088 20.9483 676.694 16.629 675.162 13.703C673.768 10.6377 672.027 8.40833 669.937 7.015C667.986 5.62166 665.548 4.85533 662.622 4.71599C659.696 4.43732 656.212 4.29799 652.172 4.29799H650.082H649.455H648.828C647.295 4.43732 646.32 4.99466 645.902 5.97C645.484 6.94533 645.275 8.96566 645.275 12.031V138.267C645.414 140.636 645.762 142.168 646.32 142.865C647.016 143.422 648.27 143.701 650.082 143.701H660.532V146H622.494V143.701H632.944C634.616 143.701 635.8 143.422 636.497 142.865C637.193 142.168 637.611 140.636 637.751 138.267V12.031C637.751 8.96566 637.472 6.94533 636.915 5.97C636.497 4.99466 635.521 4.43732 633.989 4.29799H633.571H632.944ZM693.735 143.701H704.185C706.136 143.701 707.39 143.213 707.947 142.238C708.644 141.263 708.992 139.173 708.992 135.968V12.031C708.992 8.82633 708.644 6.73633 707.947 5.761C707.39 4.78566 706.136 4.29799 704.185 4.29799H693.735V1.999H731.773V4.29799H721.323C719.372 4.29799 718.049 4.78566 717.352 5.761C716.795 6.73633 716.516 8.82633 716.516 12.031V135.968C716.516 139.173 716.795 141.263 717.352 142.238C718.049 143.213 719.372 143.701 721.323 143.701H731.773V146H693.735V143.701ZM807.015 12.24C807.711 9.03532 807.99 6.94533 807.851 5.97C807.711 4.85533 806.666 4.29799 804.716 4.29799H793.012V1.999H825.198V4.29799H816.211C814.678 4.29799 813.494 4.92499 812.658 6.17899C811.822 7.29366 811.055 9.45333 810.359 12.658L785.279 146H779.009L752.884 15.375C751.908 10.4983 750.933 7.43299 749.958 6.17899C749.122 4.92499 747.519 4.29799 745.151 4.29799H736.582V1.999H775.038V4.29799H763.334C761.383 4.29799 760.199 5.06432 759.781 6.59699C759.363 7.99033 759.572 10.9163 760.408 15.375L784.025 133.878L807.015 12.24ZM911.585 102.528V79.747C911.585 77.9357 911.237 76.6817 910.54 75.985C909.843 75.2883 908.241 74.8703 905.733 74.731H852.647V135.968C852.647 139.173 852.926 141.263 853.483 142.238C854.18 143.213 855.503 143.701 857.454 143.701H918.691C924.822 143.701 929.629 143.283 933.112 142.447C936.735 141.611 939.8 139.451 942.308 135.968C944.816 132.345 947.185 126.911 949.414 119.666C951.643 112.421 954.5 102.389 957.983 89.57L959.655 89.779L945.443 146H829.866V143.701H840.316C842.267 143.701 843.521 143.213 844.078 142.238C844.775 141.263 845.123 139.173 845.123 135.968V12.031C845.123 8.82633 844.775 6.73633 844.078 5.761C843.521 4.78566 842.267 4.29799 840.316 4.29799H829.866V1.999H941.263L951.295 58.638L949.623 58.847C947.394 45.7497 945.443 35.5783 943.771 28.333C942.238 20.9483 940.288 15.5143 937.919 12.031C935.69 8.40832 932.764 6.24866 929.141 5.55199C925.518 4.71599 920.642 4.29799 914.511 4.29799H857.454C855.503 4.29799 854.18 4.78566 853.483 5.761C852.926 6.73633 852.647 8.82633 852.647 12.031V72.432H905.733C908.241 72.2927 909.843 71.8747 910.54 71.178C911.237 70.4813 911.585 69.2273 911.585 67.416V50.905H913.466V102.528H911.585ZM996.769 62.191C1003.32 68.043 1008.68 73.1287 1012.86 77.448C1017.18 81.628 1020.59 85.599 1023.1 89.361C1025.75 93.123 1027.63 96.885 1028.75 100.647C1029.86 104.27 1030.42 108.45 1030.42 113.187C1030.42 116.949 1029.93 120.85 1028.95 124.891C1027.98 128.932 1026.24 132.624 1023.73 135.968C1021.36 139.312 1018.09 142.099 1013.91 144.328C1009.73 146.418 1004.5 147.463 998.232 147.463C990.429 147.463 984.229 145.861 979.631 142.656C975.033 139.312 971.549 135.062 969.181 129.907C966.812 124.752 965.279 119.109 964.583 112.978C964.025 106.847 963.747 100.856 963.747 95.004L965.419 94.795C965.279 103.852 965.906 111.585 967.3 117.994C968.832 124.264 970.922 129.419 973.57 133.46C976.356 137.361 979.7 140.218 983.602 142.029C987.642 143.84 992.171 144.746 997.187 144.746C1005.69 144.746 1012.44 142.308 1017.46 137.431C1022.62 132.554 1025.12 125.936 1024.98 117.576C1024.98 111.863 1023.94 106.847 1021.85 102.528C1019.9 98.0693 1017.32 93.959 1014.12 90.197C1011.05 86.2957 1007.5 82.6033 1003.46 79.12C999.555 75.4973 995.584 71.805 991.544 68.043L986.11 63.027C983.88 60.7977 981.651 58.4987 979.422 56.13C977.332 53.7613 975.451 51.1837 973.779 48.397C972.246 45.6103 970.992 42.545 970.017 39.201C969.041 35.857 968.554 32.095 968.554 27.915C968.554 19.555 970.783 12.867 975.242 7.851C979.84 2.69566 985.692 0.117997 992.798 0.117997C999.068 0.117997 1004.08 2.208 1007.85 6.38799C1011.61 10.568 1015.16 16.0717 1018.5 22.899V0.117997H1019.76L1027.7 56.966L1026.03 57.175C1023.1 44.7743 1020.18 34.9513 1017.25 27.706C1014.32 20.3213 1011.47 14.748 1008.68 10.986C1005.9 7.22399 1003.18 4.78566 1000.53 3.67099C997.883 2.55633 995.375 1.999 993.007 1.999C989.663 1.999 986.667 2.626 984.02 3.88C981.512 5.134 979.422 6.806 977.75 8.896C976.078 10.986 974.824 13.4243 973.988 16.211C973.152 18.8583 972.734 21.5753 972.734 24.362C972.734 27.706 973.082 30.7713 973.779 33.558C974.475 36.3447 975.59 38.992 977.123 41.5C978.795 44.008 980.815 46.5857 983.184 49.233C985.552 51.741 988.409 54.5277 991.753 57.593L996.769 62.191Z" fill="#566F54"/>
</svg>
