<svg width="375" height="252" viewBox="0 0 375 252" fill="none" xmlns="http://www.w3.org/2000/svg">
<path d="M23.9683 115.192V106.908C23.9683 106.249 23.8417 105.793 23.5883 105.54C23.335 105.287 22.7523 105.135 21.8403 105.084H2.53633V127.352C2.53633 128.517 2.63767 129.277 2.84033 129.632C3.09367 129.987 3.575 130.164 4.28433 130.164H8.92033V131H-5.74767V130.164H-1.94767C-1.23833 130.164 -0.782334 129.987 -0.579668 129.632C-0.326334 129.277 -0.199668 128.517 -0.199668 127.352V82.284C-0.199668 81.1187 -0.326334 80.3587 -0.579668 80.004C-0.782334 79.6493 -1.23833 79.472 -1.94767 79.472H-5.74767V78.636H34.7603L38.4083 99.232L37.8003 99.308C36.9897 94.5453 36.2803 90.8467 35.6723 88.212C35.115 85.5267 34.4057 83.5507 33.5443 82.284C32.7337 80.9667 31.6697 80.1813 30.3523 79.928C29.035 79.624 27.2617 79.472 25.0323 79.472H4.28433C3.575 79.472 3.09367 79.6493 2.84033 80.004C2.63767 80.3587 2.53633 81.1187 2.53633 82.284V104.248H21.8403C22.7523 104.197 23.335 104.045 23.5883 103.792C23.8417 103.539 23.9683 103.083 23.9683 102.424V96.42H24.6523V115.192H23.9683ZM69.0191 115.192V106.908C69.0191 106.249 68.8924 105.793 68.6391 105.54C68.3858 105.287 67.8031 105.135 66.8911 105.084H47.5871V127.352C47.5871 128.517 47.6884 129.277 47.8911 129.632C48.1444 129.987 48.6258 130.164 49.3351 130.164H71.6031C73.8324 130.164 75.5804 130.012 76.8471 129.708C78.1644 129.404 79.2791 128.619 80.1911 127.352C81.1031 126.035 81.9644 124.059 82.7751 121.424C83.5858 118.789 84.6244 115.141 85.8911 110.48L86.4991 110.556L81.3311 131H39.3031V130.164H43.1031C43.8124 130.164 44.2684 129.987 44.4711 129.632C44.7244 129.277 44.8511 128.517 44.8511 127.352V82.284C44.8511 81.1187 44.7244 80.3587 44.4711 80.004C44.2684 79.6493 43.8124 79.472 43.1031 79.472H39.3031V78.636H79.8111L83.4591 99.232L82.8511 99.308C82.0404 94.5453 81.3311 90.8467 80.7231 88.212C80.1658 85.5267 79.4564 83.5507 78.5951 82.284C77.7844 80.9667 76.7204 80.1813 75.4031 79.928C74.0858 79.624 72.3124 79.472 70.0831 79.472H49.3351C48.6258 79.472 48.1444 79.6493 47.8911 80.004C47.6884 80.3587 47.5871 81.1187 47.5871 82.284V104.248H66.8911C67.8031 104.197 68.3858 104.045 68.6391 103.792C68.8924 103.539 69.0191 103.083 69.0191 102.424V96.42H69.7031V115.192H69.0191ZM92.1059 127.276C91.8526 128.441 91.7512 129.227 91.8019 129.632C91.8526 129.987 92.3846 130.164 93.3979 130.164H98.1099V131H84.2019V130.164H87.0899C88.1032 130.164 88.8886 130.012 89.4459 129.708C90.0539 129.353 90.5099 128.492 90.8139 127.124L100.466 80.84L99.7819 78.408H102.518L114.45 117.928L125.242 80.764L124.634 78.408H127.218L139.834 126.136C140.29 127.909 140.873 129.024 141.582 129.48C142.291 129.936 143.33 130.164 144.698 130.164H146.75V131H131.322V130.164H134.666C135.781 130.164 136.541 129.911 136.946 129.404C137.351 128.897 137.351 127.833 136.946 126.212L125.85 83.196L114.982 121.804H112.702L101.226 83.348L92.1059 127.276ZM148.481 130.164H152.281C152.99 130.164 153.446 129.987 153.649 129.632C153.902 129.277 154.029 128.517 154.029 127.352V82.284C154.029 81.1187 153.902 80.3587 153.649 80.004C153.446 79.6493 152.99 79.472 152.281 79.472H148.481V78.636H162.313V79.472H158.513C157.803 79.472 157.322 79.6493 157.069 80.004C156.866 80.3587 156.765 81.1187 156.765 82.284V127.352C156.765 128.517 156.866 129.277 157.069 129.632C157.322 129.987 157.803 130.164 158.513 130.164H162.313V131H148.481V130.164ZM171.281 80.46V127.352C171.281 128.517 171.383 129.277 171.585 129.632C171.839 129.987 172.32 130.164 173.029 130.164H176.829V131H164.213V130.164H168.013C168.723 130.164 169.179 129.987 169.381 129.632C169.635 129.277 169.761 128.517 169.761 127.352V82.284C169.761 81.1187 169.635 80.3587 169.381 80.004C169.179 79.6493 168.723 79.472 168.013 79.472H164.213V78.636H173.485L193.017 124.008V82.284C193.017 81.1187 192.891 80.3587 192.637 80.004C192.435 79.6493 191.979 79.472 191.269 79.472H187.469V78.636H200.085V79.472H196.285C195.576 79.472 195.095 79.6493 194.841 80.004C194.639 80.3587 194.537 81.1187 194.537 82.284V131H193.017L171.281 80.46ZM201.992 130.164H205.792C206.502 130.164 206.958 129.987 207.16 129.632C207.414 129.277 207.54 128.517 207.54 127.352V82.284C207.54 81.1187 207.414 80.3587 207.16 80.004C206.958 79.6493 206.502 79.472 205.792 79.472H201.992V78.636H215.824V79.472H212.024C211.315 79.472 210.834 79.6493 210.58 80.004C210.378 80.3587 210.276 81.1187 210.276 82.284V127.352C210.276 128.517 210.378 129.277 210.58 129.632C210.834 129.987 211.315 130.164 212.024 130.164H215.824V131H201.992V130.164ZM231.691 79.472H230.931C229.462 79.472 228.195 79.5227 227.131 79.624C226.067 79.6747 225.155 79.9533 224.395 80.46C223.686 80.9667 223.053 81.7773 222.495 82.892C221.989 83.956 221.507 85.5267 221.051 87.604C220.595 89.6307 220.139 92.2147 219.683 95.356C219.278 98.4973 218.771 102.348 218.163 106.908L217.555 106.832L221.203 78.636H248.411L252.059 106.832L251.451 106.908C250.843 102.297 250.311 98.4467 249.855 95.356C249.45 92.2147 249.019 89.6307 248.563 87.604C248.107 85.5267 247.601 83.956 247.043 82.892C246.537 81.7773 245.903 80.9667 245.143 80.46C244.434 79.9533 243.547 79.6747 242.483 79.624C241.419 79.5227 240.153 79.472 238.683 79.472H237.923H237.695H237.467C236.91 79.5227 236.555 79.7253 236.403 80.08C236.251 80.4347 236.175 81.1693 236.175 82.284V128.188C236.226 129.049 236.353 129.607 236.555 129.86C236.809 130.063 237.265 130.164 237.923 130.164H241.723V131H227.891V130.164H231.691C232.299 130.164 232.73 130.063 232.983 129.86C233.237 129.607 233.389 129.049 233.439 128.188V82.284C233.439 81.1693 233.338 80.4347 233.135 80.08C232.983 79.7253 232.629 79.5227 232.071 79.472H231.919H231.691ZM253.797 130.164H257.597C258.306 130.164 258.762 129.987 258.965 129.632C259.218 129.277 259.345 128.517 259.345 127.352V82.284C259.345 81.1187 259.218 80.3587 258.965 80.004C258.762 79.6493 258.306 79.472 257.597 79.472H253.797V78.636H267.629V79.472H263.829C263.12 79.472 262.638 79.6493 262.385 80.004C262.182 80.3587 262.081 81.1187 262.081 82.284V127.352C262.081 128.517 262.182 129.277 262.385 129.632C262.638 129.987 263.12 130.164 263.829 130.164H267.629V131H253.797V130.164ZM294.99 82.36C295.243 81.1947 295.344 80.4347 295.294 80.08C295.243 79.6747 294.863 79.472 294.154 79.472H289.898V78.636H301.602V79.472H298.334C297.776 79.472 297.346 79.7 297.042 80.156C296.738 80.5613 296.459 81.3467 296.206 82.512L287.086 131H284.806L275.306 83.5C274.951 81.7267 274.596 80.612 274.242 80.156C273.938 79.7 273.355 79.472 272.494 79.472H269.378V78.636H283.362V79.472H279.106C278.396 79.472 277.966 79.7507 277.814 80.308C277.662 80.8147 277.738 81.8787 278.042 83.5L286.63 126.592L294.99 82.36ZM333.015 115.192V106.908C333.015 106.249 332.889 105.793 332.635 105.54C332.382 105.287 331.799 105.135 330.887 105.084H311.583V127.352C311.583 128.517 311.685 129.277 311.887 129.632C312.141 129.987 312.622 130.164 313.331 130.164H335.599C337.829 130.164 339.577 130.012 340.843 129.708C342.161 129.404 343.275 128.619 344.187 127.352C345.099 126.035 345.961 124.059 346.771 121.424C347.582 118.789 348.621 115.141 349.887 110.48L350.495 110.556L345.327 131H303.299V130.164H307.099C307.809 130.164 308.265 129.987 308.467 129.632C308.721 129.277 308.847 128.517 308.847 127.352V82.284C308.847 81.1187 308.721 80.3587 308.467 80.004C308.265 79.6493 307.809 79.472 307.099 79.472H303.299V78.636H343.807L347.455 99.232L346.847 99.308C346.037 94.5453 345.327 90.8467 344.719 88.212C344.162 85.5267 343.453 83.5507 342.591 82.284C341.781 80.9667 340.717 80.1813 339.399 79.928C338.082 79.624 336.309 79.472 334.079 79.472H313.331C312.622 79.472 312.141 79.6493 311.887 80.004C311.685 80.3587 311.583 81.1187 311.583 82.284V104.248H330.887C331.799 104.197 332.382 104.045 332.635 103.792C332.889 103.539 333.015 103.083 333.015 102.424V96.42H333.699V115.192H333.015ZM363.991 100.524C366.372 102.652 368.323 104.501 369.843 106.072C371.414 107.592 372.655 109.036 373.567 110.404C374.53 111.772 375.214 113.14 375.619 114.508C376.024 115.825 376.227 117.345 376.227 119.068C376.227 120.436 376.05 121.855 375.695 123.324C375.34 124.793 374.707 126.136 373.795 127.352C372.934 128.568 371.743 129.581 370.223 130.392C368.703 131.152 366.803 131.532 364.523 131.532C361.686 131.532 359.431 130.949 357.759 129.784C356.087 128.568 354.82 127.023 353.959 125.148C353.098 123.273 352.54 121.221 352.287 118.992C352.084 116.763 351.983 114.584 351.983 112.456L352.591 112.38C352.54 115.673 352.768 118.485 353.275 120.816C353.832 123.096 354.592 124.971 355.555 126.44C356.568 127.859 357.784 128.897 359.203 129.556C360.672 130.215 362.319 130.544 364.143 130.544C367.234 130.544 369.691 129.657 371.515 127.884C373.39 126.111 374.302 123.704 374.251 120.664C374.251 118.587 373.871 116.763 373.111 115.192C372.402 113.571 371.464 112.076 370.299 110.708C369.184 109.289 367.892 107.947 366.423 106.68C365.004 105.363 363.56 104.02 362.091 102.652L360.115 100.828C359.304 100.017 358.494 99.1813 357.683 98.32C356.923 97.4587 356.239 96.5213 355.631 95.508C355.074 94.4947 354.618 93.38 354.263 92.164C353.908 90.948 353.731 89.58 353.731 88.06C353.731 85.02 354.542 82.588 356.163 80.764C357.835 78.8893 359.963 77.952 362.547 77.952C364.827 77.952 366.651 78.712 368.019 80.232C369.387 81.752 370.679 83.7533 371.895 86.236V77.952H372.351L375.239 98.624L374.631 98.7C373.567 94.1907 372.503 90.6187 371.439 87.984C370.375 85.2987 369.336 83.272 368.323 81.904C367.31 80.536 366.322 79.6493 365.359 79.244C364.396 78.8387 363.484 78.636 362.623 78.636C361.407 78.636 360.318 78.864 359.355 79.32C358.443 79.776 357.683 80.384 357.075 81.144C356.467 81.904 356.011 82.7907 355.707 83.804C355.403 84.7667 355.251 85.7547 355.251 86.768C355.251 87.984 355.378 89.0987 355.631 90.112C355.884 91.1253 356.29 92.088 356.847 93C357.455 93.912 358.19 94.8493 359.051 95.812C359.912 96.724 360.951 97.7373 362.167 98.852L363.991 100.524Z" fill="#566F54"/>
<path d="M217.03 174L203.03 180.5" stroke="#566F54"/>
<path d="M209.53 165.5L216.03 173" stroke="#566F54"/>
<path d="M243.53 182.5L231.53 192.5" stroke="#566F54"/>
<path d="M326.53 180L316.03 171.5" stroke="#566F54"/>
<path d="M303.03 185.5L294.03 200.5" stroke="#566F54"/>
<path d="M367.03 164L363.03 182" stroke="#566F54"/>
<path d="M422.992 115.452C396.41 151.556 317.851 213.641 216.273 173.144" stroke="#566F54"/>
<path d="M326.583 180.088C326.04 173.022 320.074 159.237 300.556 160.625C302.266 167.523 309.865 181.072 326.583 180.088Z" stroke="#566F54"/>
<path d="M216.427 173.425C216.783 168.788 214.297 159.251 201.501 158.193C201.918 162.838 205.487 172.386 216.427 173.425Z" stroke="#566F54"/>
<path d="M243.962 182.224C236.934 181.312 222.221 184.335 219.59 203.724C226.691 203.461 241.508 198.791 243.962 182.224Z" stroke="#566F54"/>
<path d="M217.53 174.138C210.902 171.629 195.888 171.178 188.857 189.439C195.828 190.82 211.322 189.692 217.53 174.138Z" stroke="#566F54"/>
<path d="M282.603 216.171C290.69 215.235 306.25 207.776 303.793 185.432C295.951 187.7 280.734 197.023 282.603 216.171Z" stroke="#566F54"/>
<path d="M357.083 199.253C364.458 195.805 376.857 183.804 367.454 163.387C360.733 168.02 349.249 181.681 357.083 199.253Z" stroke="#566F54"/>
<path d="M-46.9981 83.3159C-25.189 58.5811 37.6518 15.1385 114.542 39.2463" stroke="#566F54"/>
<path d="M29.7036 37.6834C29.8674 42.3652 33.9715 51.3632 49.0772 49.9007C48.0075 45.3631 42.6353 36.5669 29.7036 37.6834Z" stroke="#566F54"/>
<path d="M114.434 39.0638C113.992 42.1557 115.565 48.4266 125.397 48.7755C125.244 45.6999 122.836 39.4516 114.434 39.0638Z" stroke="#566F54"/>
<path d="M93.5127 33.9767C98.9007 34.3886 110.359 31.9722 113.089 19.0108C107.602 19.3827 96.0044 22.8965 93.5127 33.9767Z" stroke="#566F54"/>
<path d="M113.609 38.621C118.631 40.1048 130.196 39.9891 136.279 27.6564C130.951 26.9316 118.959 28.1098 113.609 38.621Z" stroke="#566F54"/>
<path d="M64.9323 12.4807C58.6603 13.327 46.3882 18.7156 47.476 33.5002C53.6072 31.7756 65.6823 25.1573 64.9323 12.4807Z" stroke="#566F54"/>
<path d="M29.892 37.7705L38.7547 43.7949" stroke="#566F54"/>
<path d="M47.941 33.2702L53.9654 24.4075" stroke="#566F54"/>
<path d="M94.0609 33.674L101.53 27.4703" stroke="#566F54"/>
<path d="M114.288 38.3787L123.991 33.8969" stroke="#566F54"/>
<path d="M114.362 39.2422L119.264 43.6923" stroke="#566F54"/>
</svg>
