<svg width="286" height="800" viewBox="0 0 286 800" fill="none" xmlns="http://www.w3.org/2000/svg">
<mask id="mask0_1_276" style="mask-type:alpha" maskUnits="userSpaceOnUse" x="0" y="0" width="286" height="800">
<rect width="286" height="800" fill="#C4C4C4"/>
</mask>
<g mask="url(#mask0_1_276)">
<path d="M286.17 673.131C276.61 629.328 230.174 540.616 120.911 536.198" stroke="#566F54"/>
<path d="M224.474 574.815C221.098 581.046 210.032 591.202 192.774 581.98C197.147 576.378 209.608 567.102 224.474 574.815Z" stroke="#566F54"/>
<path d="M121.166 536.004C119.602 540.384 113.444 548.08 101.328 543.83C103.602 539.759 110.752 532.494 121.166 536.004Z" stroke="#566F54"/>
<path d="M149.896 539.191C143.107 537.16 130.903 528.403 136.403 509.624C142.78 512.76 154.407 523.062 149.896 539.191Z" stroke="#566F54"/>
<path d="M122.464 535.803C115.389 535.392 101.495 529.685 102.517 510.145C109.445 511.725 123.134 519.069 122.464 535.803Z" stroke="#566F54"/>
<path d="M278.701 649.727C271.988 655.272 254.026 662.244 235.884 645.77C243.606 641.282 262.982 635.789 278.701 649.727Z" stroke="#566F54"/>
<path d="M199.018 523.939C206.021 528.09 217.19 541.243 205.841 560.646C199.603 555.379 189.507 540.664 199.018 523.939Z" stroke="#566F54"/>
<path d="M260.137 569.744C265.466 575.899 271.898 591.911 254.99 606.723C250.741 599.753 245.821 582.598 260.137 569.744Z" stroke="#566F54"/>
<path d="M205.392 560.161L201.754 544.068" stroke="#566F54"/>
<path d="M224.479 574.301L208.385 577.939" stroke="#566F54"/>
<path d="M253.875 604.564L257.285 587.903" stroke="#566F54"/>
<path d="M149.236 538.51L142.515 524.651" stroke="#566F54"/>
<path d="M121.891 535.464L113.393 525.082" stroke="#566F54"/>
<path d="M109.873 541.257L120.539 536.283" stroke="#566F54"/>
<path d="M278.822 649.162L257.724 648.805" stroke="#566F54"/>
<path d="M112.5 238L98.5 244.5" stroke="#566F54"/>
<path d="M105 229.5L111.5 237" stroke="#566F54"/>
<path d="M139 246.5L127 256.5" stroke="#566F54"/>
<path d="M222 244L211.5 235.5" stroke="#566F54"/>
<path d="M262.5 228L258.5 246" stroke="#566F54"/>
<path d="M318.462 179.452C291.88 215.556 213.321 277.641 111.744 237.144" stroke="#566F54"/>
<path d="M222.054 244.088C221.51 237.022 215.544 223.237 196.026 224.625C197.736 231.523 205.335 245.072 222.054 244.088Z" stroke="#566F54"/>
<path d="M111.897 237.425C112.254 232.788 109.767 223.251 96.9711 222.193C97.3881 226.838 100.957 236.386 111.897 237.425Z" stroke="#566F54"/>
<path d="M113 238.138C106.372 235.629 91.3581 235.178 84.3275 253.439C91.2985 254.82 106.792 253.692 113 238.138Z" stroke="#566F54"/>
<path d="M198.5 249.5L189.5 264.5" stroke="#566F54"/>
<path d="M139.432 246.224C132.404 245.312 117.691 248.335 115.06 267.724C122.161 267.461 136.978 262.791 139.432 246.224Z" stroke="#566F54"/>
<path d="M178.073 280.171C186.16 279.235 201.72 271.776 199.263 249.432C191.421 251.7 176.203 261.023 178.073 280.171Z" stroke="#566F54"/>
<path d="M252.554 263.253C259.929 259.805 272.328 247.804 262.924 227.387C256.203 232.02 244.719 245.681 252.554 263.253Z" stroke="#566F54"/>
</g>
</svg>
