<svg width="24" height="24" viewBox="0 0 24 24" fill="none" xmlns="http://www.w3.org/2000/svg">
<path d="M21 4.00005H2V6.00005H4.3L7.58 15.0001C7.78631 15.5836 8.16807 16.0891 8.67294 16.4471C9.1778 16.8052 9.78106 16.9983 10.4 17.0001H19V15.0001H10.4C10.1945 15 9.99399 14.9366 9.8258 14.8185C9.6576 14.7004 9.52987 14.5333 9.46 14.3401L9 13.0001H18.28C18.714 12.9994 19.1361 12.8576 19.4824 12.5961C19.8288 12.3345 20.0806 11.9673 20.2 11.5501L22 5.27005C22.0406 5.13874 22.0538 5.00045 22.0386 4.86383C22.0234 4.72721 21.9802 4.59518 21.9117 4.47601C21.8432 4.35683 21.7509 4.25305 21.6404 4.17116C21.53 4.08927 21.4039 4.03102 21.27 4.00005C21.1806 3.9855 21.0894 3.9855 21 4.00005ZM18.25 11.0001H8.25L6.43 6.00005H19.67L18.25 11.0001Z" fill="#ED101D"/>
<path d="M10.5 21C11.3284 21 12 20.3284 12 19.5C12 18.6716 11.3284 18 10.5 18C9.67157 18 9 18.6716 9 19.5C9 20.3284 9.67157 21 10.5 21Z" fill="#ED101D"/>
<path d="M16.5 21C17.3284 21 18 20.3284 18 19.5C18 18.6716 17.3284 18 16.5 18C15.6716 18 15 18.6716 15 19.5C15 20.3284 15.6716 21 16.5 21Z" fill="#ED101D"/>
</svg>
