<svg width="192" height="47" viewBox="0 0 192 47" fill="none" xmlns="http://www.w3.org/2000/svg">
<path d="M61.2777 32C61.0871 32 60.9311 31.9394 60.8097 31.818C60.6884 31.6967 60.6277 31.5494 60.6277 31.376V14.45C60.6277 14.2594 60.6884 14.1034 60.8097 13.982C60.9311 13.8607 61.0871 13.8 61.2777 13.8H63.3317C63.5744 13.8 63.7564 13.8694 63.8777 14.008C63.9991 14.1294 64.0771 14.2247 64.1117 14.294L69.1297 23.654L74.1997 14.294C74.2344 14.2247 74.3124 14.1294 74.4337 14.008C74.5551 13.8694 74.7371 13.8 74.9797 13.8H77.0077C77.1984 13.8 77.3544 13.8607 77.4757 13.982C77.5971 14.1034 77.6577 14.2594 77.6577 14.45V31.376C77.6577 31.5494 77.5971 31.6967 77.4757 31.818C77.3544 31.9394 77.1984 32 77.0077 32H74.8237C74.6331 32 74.4771 31.9394 74.3557 31.818C74.2517 31.6967 74.1997 31.5494 74.1997 31.376V20.118L70.5597 27.06C70.4731 27.216 70.3604 27.3547 70.2217 27.476C70.0831 27.58 69.9011 27.632 69.6757 27.632H68.6097C68.3671 27.632 68.1764 27.58 68.0377 27.476C67.9164 27.3547 67.8124 27.216 67.7257 27.06L64.0857 20.118V31.376C64.0857 31.5494 64.0251 31.6967 63.9037 31.818C63.7824 31.9394 63.6351 32 63.4617 32H61.2777Z" fill="#323746"/>
<path d="M83.106 32C82.9326 32 82.7853 31.9394 82.664 31.818C82.5426 31.6967 82.482 31.5494 82.482 31.376V14.45C82.482 14.2594 82.5426 14.1034 82.664 13.982C82.7853 13.8607 82.9326 13.8 83.106 13.8H94.546C94.7366 13.8 94.8926 13.8607 95.014 13.982C95.1353 14.1034 95.196 14.2594 95.196 14.45V16.166C95.196 16.3394 95.1353 16.4867 95.014 16.608C94.8926 16.7294 94.7366 16.79 94.546 16.79H85.992V21.392H93.974C94.1646 21.392 94.3206 21.4527 94.442 21.574C94.5633 21.678 94.624 21.8254 94.624 22.016V23.628C94.624 23.8187 94.5633 23.9747 94.442 24.096C94.3206 24.2 94.1646 24.252 93.974 24.252H85.992V29.01H94.754C94.9446 29.01 95.1006 29.0707 95.222 29.192C95.3433 29.3134 95.404 29.4694 95.404 29.66V31.376C95.404 31.5494 95.3433 31.6967 95.222 31.818C95.1006 31.9394 94.9446 32 94.754 32H83.106Z" fill="#323746"/>
<path d="M98.7078 35.614C98.5345 35.614 98.3871 35.5534 98.2658 35.432C98.1445 35.328 98.0838 35.1807 98.0838 34.99V29.374C98.0838 29.2007 98.1445 29.0534 98.2658 28.932C98.3871 28.8107 98.5345 28.75 98.7078 28.75H99.2278C99.6438 28.75 99.9991 28.5594 100.294 28.178C100.588 27.7794 100.831 27.2074 101.022 26.462C101.212 25.6994 101.351 24.7634 101.438 23.654C101.542 22.5447 101.594 21.2794 101.594 19.858V14.424C101.594 14.2507 101.646 14.1034 101.75 13.982C101.871 13.8607 102.027 13.8 102.218 13.8H113.372C113.562 13.8 113.718 13.8607 113.84 13.982C113.961 14.1034 114.022 14.2594 114.022 14.45V28.75H115.27C115.46 28.75 115.616 28.8107 115.738 28.932C115.859 29.0534 115.92 29.2007 115.92 29.374V34.99C115.92 35.1807 115.859 35.328 115.738 35.432C115.616 35.5534 115.46 35.614 115.27 35.614H112.93C112.739 35.614 112.583 35.5534 112.462 35.432C112.358 35.328 112.306 35.1807 112.306 34.99V32H101.698V34.99C101.698 35.1807 101.637 35.328 101.516 35.432C101.394 35.5534 101.238 35.614 101.048 35.614H98.7078ZM103.648 28.75H110.408V17.05H105.078V20.326C105.078 22.4754 104.956 24.2347 104.714 25.604C104.471 26.956 104.116 28.0047 103.648 28.75Z" fill="#323746"/>
<path d="M120.213 32C120.04 32 119.892 31.9394 119.771 31.818C119.65 31.6967 119.589 31.5407 119.589 31.35V14.45C119.589 14.2594 119.65 14.1034 119.771 13.982C119.892 13.8607 120.048 13.8 120.239 13.8H122.579C122.77 13.8 122.917 13.8607 123.021 13.982C123.142 14.1034 123.203 14.2594 123.203 14.45V26.384L131.757 14.216C131.826 14.1294 131.922 14.0427 132.043 13.956C132.164 13.852 132.32 13.8 132.511 13.8H134.669C134.842 13.8 134.99 13.8607 135.111 13.982C135.232 14.1034 135.293 14.2594 135.293 14.45V31.376C135.293 31.5494 135.232 31.6967 135.111 31.818C134.99 31.9394 134.842 32 134.669 32H132.329C132.138 32 131.982 31.9394 131.861 31.818C131.74 31.6967 131.679 31.5494 131.679 31.376V19.676L123.151 31.584C123.099 31.6534 123.012 31.74 122.891 31.844C122.77 31.948 122.605 32 122.397 32H120.213Z" fill="#323746"/>
<path d="M147.117 32.26C145.574 32.26 144.248 32.0087 143.139 31.506C142.029 30.986 141.163 30.1974 140.539 29.14C139.915 28.0654 139.577 26.7307 139.525 25.136C139.507 24.3907 139.499 23.654 139.499 22.926C139.499 22.198 139.507 21.4527 139.525 20.69C139.577 19.1127 139.923 17.7954 140.565 16.738C141.206 15.6807 142.081 14.8834 143.191 14.346C144.317 13.8087 145.626 13.54 147.117 13.54C148.607 13.54 149.916 13.8087 151.043 14.346C152.169 14.8834 153.053 15.6807 153.695 16.738C154.336 17.7954 154.683 19.1127 154.735 20.69C154.769 21.4527 154.787 22.198 154.787 22.926C154.787 23.654 154.769 24.3907 154.735 25.136C154.683 26.7307 154.345 28.0654 153.721 29.14C153.097 30.1974 152.221 30.986 151.095 31.506C149.985 32.0087 148.659 32.26 147.117 32.26ZM147.117 29.27C148.243 29.27 149.162 28.9407 149.873 28.282C150.583 27.606 150.965 26.514 151.017 25.006C151.051 24.2434 151.069 23.5414 151.069 22.9C151.069 22.2414 151.051 21.5394 151.017 20.794C150.982 19.7887 150.791 18.974 150.445 18.35C150.115 17.7087 149.665 17.2494 149.093 16.972C148.521 16.6774 147.862 16.53 147.117 16.53C146.389 16.53 145.739 16.6774 145.167 16.972C144.595 17.2494 144.135 17.7087 143.789 18.35C143.459 18.974 143.277 19.7887 143.243 20.794C143.225 21.5394 143.217 22.2414 143.217 22.9C143.217 23.5414 143.225 24.2434 143.243 25.006C143.295 26.514 143.676 27.606 144.387 28.282C145.097 28.9407 146.007 29.27 147.117 29.27Z" fill="#323746"/>
<path d="M159.605 32C159.432 32 159.284 31.948 159.163 31.844C159.042 31.7227 158.981 31.5667 158.981 31.376V14.45C158.981 14.2594 159.042 14.1034 159.163 13.982C159.284 13.8607 159.432 13.8 159.605 13.8H173.229C173.42 13.8 173.576 13.8607 173.697 13.982C173.818 14.1034 173.879 14.2594 173.879 14.45V31.376C173.879 31.5494 173.818 31.6967 173.697 31.818C173.576 31.9394 173.42 32 173.229 32H170.889C170.716 32 170.568 31.9394 170.447 31.818C170.326 31.6967 170.265 31.5494 170.265 31.376V17.05H162.595V31.376C162.595 31.5494 162.534 31.6967 162.413 31.818C162.309 31.9394 162.162 32 161.971 32H159.605Z" fill="#323746"/>
<path d="M183.33 32C183.157 32 183.01 31.9394 182.888 31.818C182.767 31.6967 182.706 31.5494 182.706 31.376V16.998H177.896C177.723 16.998 177.576 16.9374 177.454 16.816C177.333 16.6947 177.272 16.5474 177.272 16.374V14.45C177.272 14.2594 177.333 14.1034 177.454 13.982C177.576 13.8607 177.723 13.8 177.896 13.8H191.156C191.347 13.8 191.503 13.8607 191.624 13.982C191.746 14.1034 191.806 14.2594 191.806 14.45V16.374C191.806 16.5474 191.746 16.6947 191.624 16.816C191.503 16.9374 191.347 16.998 191.156 16.998H186.372V31.376C186.372 31.5494 186.312 31.6967 186.19 31.818C186.069 31.9394 185.913 32 185.722 32H183.33Z" fill="#323746"/>
<path d="M35.5722 24.0972C35.5743 28.0699 34.0271 31.8064 31.2152 34.6182C28.4068 37.4267 24.671 38.9749 20.6959 38.9769H20.6956V43.711C20.6956 45.5269 22.1683 47 23.9845 47H29.7782C31.594 47 33.0668 45.5269 33.0668 43.711V36.4691H40.3087C42.127 36.467 43.5977 34.9963 43.5977 33.1805L43.5997 27.3844C43.5997 25.5682 42.1266 24.0958 40.3108 24.0958L35.5722 24.0972Z" fill="#ED101D"/>
<path d="M32.8389 13.0848L20.7136 0.959441C19.4357 -0.318793 17.3604 -0.320833 16.0804 0.959441C15.4429 1.59703 15.1215 2.43626 15.1239 3.27618C15.1239 4.11303 15.4449 4.95226 16.0828 5.59053L17.799 7.30674C19.0769 8.5843 19.0769 10.6576 17.797 11.9378C17.1567 12.5778 16.3198 12.8968 15.483 12.8968C14.6458 12.8968 13.8086 12.5778 13.1686 11.9378L8.82726 7.5968C7.54971 6.31925 5.47441 6.31687 4.19447 7.5968C3.55654 8.23439 3.23554 9.0743 3.23758 9.9132C3.23758 10.7507 3.55654 11.5876 4.19651 12.2276L11.0399 19.071C12.3178 20.3492 12.3178 22.4215 11.0379 23.7021C10.3979 24.342 9.56074 24.661 8.72355 24.661C7.88635 24.661 7.04916 24.342 6.40919 23.7021L5.58968 22.8826C4.31179 21.605 2.23886 21.605 0.958931 22.8853C0.321004 23.5229 0 24.3621 0 25.1993C0 26.0368 0.318964 26.8737 0.958931 27.5136L9.69778 36.2528C10.5904 37.3403 11.9411 38.036 13.4539 38.0381H20.6959C24.4187 38.036 27.9178 36.5871 30.5515 33.9541C33.1844 31.3211 34.6354 27.8194 34.633 24.0965V17.1949C34.633 16.318 34.4559 15.4454 34.0747 14.6568C33.7244 13.9264 33.3102 13.4765 32.8389 13.0848ZM33.0668 16.8522V24.0941C33.0668 30.9287 27.5281 36.4674 20.6956 36.4698H13.4539C11.6381 36.4698 10.1674 34.995 10.165 33.1812L10.1606 27.3875C10.163 25.5689 11.6381 24.0986 13.4495 24.0986H20.6959L20.6939 16.8546C20.6959 15.0363 22.1666 13.5656 23.9824 13.5656H29.7809C31.5964 13.5653 33.0668 15.036 33.0668 16.8522Z" fill="#ED101D"/>
</svg>
