<svg width="35" height="35" viewBox="0 0 35 35" fill="none" xmlns="http://www.w3.org/2000/svg">
<g filter="url(#filter0_d_204_3333)">
<circle cx="17.5" cy="17.5" r="13.5" fill="white"/>
</g>
<g clip-path="url(#clip0_204_3333)">
<path d="M20.6351 17.5002C20.6351 17.6973 20.5598 17.8944 20.4096 18.0447L15.6798 22.7745C15.3789 23.0753 14.8911 23.0753 14.5903 22.7745C14.2896 22.4737 14.2896 21.986 14.5903 21.6851L18.7755 17.5002L14.5905 13.3152C14.2897 13.0143 14.2897 12.5266 14.5905 12.2259C14.8912 11.9249 15.379 11.9249 15.6799 12.2259L20.4097 16.9556C20.56 17.106 20.6351 17.3031 20.6351 17.5002Z" fill="#ED101D"/>
</g>
<defs>
<filter id="filter0_d_204_3333" x="0" y="0" width="35" height="35" filterUnits="userSpaceOnUse" color-interpolation-filters="sRGB">
<feFlood flood-opacity="0" result="BackgroundImageFix"/>
<feColorMatrix in="SourceAlpha" type="matrix" values="0 0 0 0 0 0 0 0 0 0 0 0 0 0 0 0 0 0 127 0" result="hardAlpha"/>
<feOffset/>
<feGaussianBlur stdDeviation="2"/>
<feComposite in2="hardAlpha" operator="out"/>
<feColorMatrix type="matrix" values="0 0 0 0 0.443137 0 0 0 0 0.486275 0 0 0 0 0.498039 0 0 0 0.25 0"/>
<feBlend mode="normal" in2="BackgroundImageFix" result="effect1_dropShadow_204_3333"/>
<feBlend mode="normal" in="SourceGraphic" in2="effect1_dropShadow_204_3333" result="shape"/>
</filter>
<clipPath id="clip0_204_3333">
<rect width="11" height="11" fill="white" transform="translate(12 23) rotate(-90)"/>
</clipPath>
</defs>
</svg>
