<svg width="17" height="17" viewBox="0 0 17 17" fill="none" xmlns="http://www.w3.org/2000/svg">
<path d="M7.48644 0C3.35853 0 0 3.35853 0 7.48644C0 11.6146 3.35853 14.9729 7.48644 14.9729C11.6146 14.9729 14.9729 11.6146 14.9729 7.48644C14.9729 3.35853 11.6146 0 7.48644 0ZM7.48644 13.5908C4.12054 13.5908 1.38211 10.8524 1.38211 7.48647C1.38211 4.12057 4.12054 1.38211 7.48644 1.38211C10.8523 1.38211 13.5908 4.12054 13.5908 7.48644C13.5908 10.8523 10.8523 13.5908 7.48644 13.5908Z" fill="#BEBEBE"/>
<path d="M16.7974 15.8203L12.8353 11.8582C12.5653 11.5883 12.1281 11.5883 11.8581 11.8582C11.5881 12.128 11.5881 12.5657 11.8581 12.8354L15.8202 16.7975C15.9552 16.9325 16.1319 17 16.3088 17C16.4855 17 16.6624 16.9325 16.7974 16.7975C17.0673 16.5277 17.0673 16.0901 16.7974 15.8203Z" fill="#BEBEBE"/>
</svg>
