<svg width="1037" height="10" viewBox="0 0 1037 10" fill="none" xmlns="http://www.w3.org/2000/svg">
<path d="M0 5C0 2.23858 2.23858 0 5 0H145.89V10H5C2.23858 10 0 7.76142 0 5Z" fill="#2D9A2B"/>
<rect width="1037" height="10" rx="5" fill="#171717"/>
<mask id="mask0_0:187" style="mask-type:alpha" maskUnits="userSpaceOnUse" x="0" y="0" width="1037" height="10">
<rect width="1037" height="10" rx="5" fill="#171717"/>
</mask>
<g mask="url(#mask0_0:187)">
<rect opacity="0.05" width="6.15444" height="13.9357" transform="matrix(0.932264 0.361779 -0.352827 0.935688 191.414 -2.38281)" fill="white"/>
<rect opacity="0.05" width="6.15444" height="13.9357" transform="matrix(0.932264 0.361779 -0.352827 0.935688 381.054 -2.38281)" fill="white"/>
<rect opacity="0.05" width="6.15444" height="13.9357" transform="matrix(0.932264 0.361779 -0.352827 0.935688 570.695 -2.38281)" fill="white"/>
<rect opacity="0.05" width="6.15444" height="13.9357" transform="matrix(0.932264 0.361779 -0.352827 0.935688 760.336 -2.38281)" fill="white"/>
<rect opacity="0.05" width="6.15444" height="13.9357" transform="matrix(0.932264 0.361779 -0.352827 0.935688 949.976 -2.38281)" fill="white"/>
<rect opacity="0.05" width="6.15444" height="13.9357" transform="matrix(0.932264 0.361779 -0.352827 0.935688 286.234 -2.38281)" fill="white"/>
<rect opacity="0.05" width="6.15444" height="13.9357" transform="matrix(0.932264 0.361779 -0.352827 0.935688 475.875 -2.38281)" fill="white"/>
<rect opacity="0.05" width="6.15444" height="13.9357" transform="matrix(0.932264 0.361779 -0.352827 0.935688 665.516 -2.38281)" fill="white"/>
<rect opacity="0.05" width="6.15444" height="13.9357" transform="matrix(0.932264 0.361779 -0.352827 0.935688 855.156 -2.38281)" fill="white"/>
<rect opacity="0.05" width="6.15444" height="13.9357" transform="matrix(0.932264 0.361779 -0.352827 0.935688 238.824 -2.38281)" fill="white"/>
<rect opacity="0.05" width="6.15444" height="13.9357" transform="matrix(0.932264 0.361779 -0.352827 0.935688 428.465 -2.38281)" fill="white"/>
<rect opacity="0.05" width="6.15444" height="13.9357" transform="matrix(0.932264 0.361779 -0.352827 0.935688 618.106 -2.38281)" fill="white"/>
<rect opacity="0.05" width="6.15444" height="13.9357" transform="matrix(0.932264 0.361779 -0.352827 0.935688 807.746 -2.38281)" fill="white"/>
<rect opacity="0.05" width="6.15444" height="13.9357" transform="matrix(0.932264 0.361779 -0.352827 0.935688 997.387 -2.38281)" fill="white"/>
<rect opacity="0.05" width="6.15444" height="13.9357" transform="matrix(0.932264 0.361779 -0.352827 0.935688 333.646 -2.38281)" fill="white"/>
<rect opacity="0.05" width="6.15444" height="13.9357" transform="matrix(0.932264 0.361779 -0.352827 0.935688 523.286 -2.38281)" fill="white"/>
<rect opacity="0.05" width="6.15444" height="13.9357" transform="matrix(0.932264 0.361779 -0.352827 0.935688 712.926 -2.38281)" fill="white"/>
<rect opacity="0.05" width="6.15444" height="13.9357" transform="matrix(0.932264 0.361779 -0.352827 0.935688 902.566 -2.38281)" fill="white"/>
<rect opacity="0.05" width="6.15444" height="13.9357" transform="matrix(0.932264 0.361779 -0.352827 0.935688 207.219 -2.38281)" fill="white"/>
<rect opacity="0.05" width="6.15444" height="13.9357" transform="matrix(0.932264 0.361779 -0.352827 0.935688 396.858 -2.38281)" fill="white"/>
<rect opacity="0.05" width="6.15444" height="13.9357" transform="matrix(0.932264 0.361779 -0.352827 0.935688 586.499 -2.38281)" fill="white"/>
<rect opacity="0.05" width="6.15444" height="13.9357" transform="matrix(0.932264 0.361779 -0.352827 0.935688 776.139 -2.38281)" fill="white"/>
<rect opacity="0.05" width="6.15444" height="13.9357" transform="matrix(0.932264 0.361779 -0.352827 0.935688 965.78 -2.38281)" fill="white"/>
<rect opacity="0.05" width="6.15444" height="13.9357" transform="matrix(0.932264 0.361779 -0.352827 0.935688 302.038 -2.38281)" fill="white"/>
<rect opacity="0.05" width="6.15444" height="13.9357" transform="matrix(0.932264 0.361779 -0.352827 0.935688 491.679 -2.38281)" fill="white"/>
<rect opacity="0.05" width="6.15444" height="13.9357" transform="matrix(0.932264 0.361779 -0.352827 0.935688 681.319 -2.38281)" fill="white"/>
<rect opacity="0.05" width="6.15444" height="13.9357" transform="matrix(0.932264 0.361779 -0.352827 0.935688 870.959 -2.38281)" fill="white"/>
<rect opacity="0.05" width="6.15444" height="13.9357" transform="matrix(0.932264 0.361779 -0.352827 0.935688 254.627 -2.38281)" fill="white"/>
<rect opacity="0.05" width="6.15444" height="13.9357" transform="matrix(0.932264 0.361779 -0.352827 0.935688 444.268 -2.38281)" fill="white"/>
<rect opacity="0.05" width="6.15444" height="13.9357" transform="matrix(0.932264 0.361779 -0.352827 0.935688 633.909 -2.38281)" fill="white"/>
<rect opacity="0.05" width="6.15444" height="13.9357" transform="matrix(0.932264 0.361779 -0.352827 0.935688 823.549 -2.38281)" fill="white"/>
<rect opacity="0.05" width="6.15444" height="13.9357" transform="matrix(0.932264 0.361779 -0.352827 0.935688 1013.19 -2.38281)" fill="white"/>
<rect opacity="0.05" width="6.15444" height="13.9357" transform="matrix(0.932264 0.361779 -0.352827 0.935688 349.448 -2.38281)" fill="white"/>
<rect opacity="0.05" width="6.15444" height="13.9357" transform="matrix(0.932264 0.361779 -0.352827 0.935688 539.088 -2.38281)" fill="white"/>
<rect opacity="0.05" width="6.15444" height="13.9357" transform="matrix(0.932264 0.361779 -0.352827 0.935688 728.728 -2.38281)" fill="white"/>
<rect opacity="0.05" width="6.15444" height="13.9357" transform="matrix(0.932264 0.361779 -0.352827 0.935688 918.369 -2.38281)" fill="white"/>
<rect opacity="0.05" width="6.15444" height="13.9357" transform="matrix(0.932264 0.361779 -0.352827 0.935688 223.02 -2.38281)" fill="white"/>
<rect opacity="0.05" width="6.15444" height="13.9357" transform="matrix(0.932264 0.361779 -0.352827 0.935688 412.661 -2.38281)" fill="white"/>
<rect opacity="0.05" width="6.15444" height="13.9357" transform="matrix(0.932264 0.361779 -0.352827 0.935688 602.301 -2.38281)" fill="white"/>
<rect opacity="0.05" width="6.15444" height="13.9357" transform="matrix(0.932264 0.361779 -0.352827 0.935688 791.942 -2.38281)" fill="white"/>
<rect opacity="0.05" width="6.15444" height="13.9357" transform="matrix(0.932264 0.361779 -0.352827 0.935688 981.583 -2.38281)" fill="white"/>
<rect opacity="0.05" width="6.15444" height="13.9357" transform="matrix(0.932264 0.361779 -0.352827 0.935688 317.841 -2.38281)" fill="white"/>
<rect opacity="0.05" width="6.15444" height="13.9357" transform="matrix(0.932264 0.361779 -0.352827 0.935688 507.481 -2.38281)" fill="white"/>
<rect opacity="0.05" width="6.15444" height="13.9357" transform="matrix(0.932264 0.361779 -0.352827 0.935688 697.121 -2.38281)" fill="white"/>
<rect opacity="0.05" width="6.15444" height="13.9357" transform="matrix(0.932264 0.361779 -0.352827 0.935688 886.762 -2.38281)" fill="white"/>
<rect opacity="0.05" width="6.15444" height="13.9357" transform="matrix(0.932264 0.361779 -0.352827 0.935688 270.431 -2.38281)" fill="white"/>
<rect opacity="0.05" width="6.15444" height="13.9357" transform="matrix(0.932264 0.361779 -0.352827 0.935688 460.072 -2.38281)" fill="white"/>
<rect opacity="0.05" width="6.15444" height="13.9357" transform="matrix(0.932264 0.361779 -0.352827 0.935688 649.712 -2.38281)" fill="white"/>
<rect opacity="0.05" width="6.15444" height="13.9357" transform="matrix(0.932264 0.361779 -0.352827 0.935688 839.353 -2.38281)" fill="white"/>
<rect opacity="0.05" width="6.15444" height="13.9357" transform="matrix(0.932264 0.361779 -0.352827 0.935688 1028.99 -2.38281)" fill="white"/>
<rect opacity="0.05" width="6.15444" height="13.9357" transform="matrix(0.932264 0.361779 -0.352827 0.935688 365.251 -2.38281)" fill="white"/>
<rect opacity="0.05" width="6.15444" height="13.9357" transform="matrix(0.932264 0.361779 -0.352827 0.935688 554.891 -2.38281)" fill="white"/>
<rect opacity="0.05" width="6.15444" height="13.9357" transform="matrix(0.932264 0.361779 -0.352827 0.935688 744.532 -2.38281)" fill="white"/>
<rect opacity="0.05" width="6.15444" height="13.9357" transform="matrix(0.932264 0.361779 -0.352827 0.935688 934.174 -2.38281)" fill="white"/>
<rect opacity="0.05" width="6.15444" height="13.9357" transform="matrix(0.932264 0.361779 -0.352827 0.935688 33.8466 -3)" fill="white"/>
<rect opacity="0.05" width="6.15444" height="13.9357" transform="matrix(0.932264 0.361779 -0.352827 0.935688 1.82495 -3)" fill="white"/>
<rect opacity="0.05" width="6.15444" height="13.9357" transform="matrix(0.932264 0.361779 -0.352827 0.935688 128.668 -3)" fill="white"/>
<rect opacity="0.05" width="6.15444" height="13.9357" transform="matrix(0.932264 0.361779 -0.352827 0.935688 81.2573 -3)" fill="white"/>
<rect opacity="0.05" width="6.15444" height="13.9357" transform="matrix(0.932264 0.361779 -0.352827 0.935688 49.6505 -3)" fill="white"/>
<rect opacity="0.05" width="6.15444" height="13.9357" transform="matrix(0.932264 0.361779 -0.352827 0.935688 176.078 -3)" fill="white"/>
<rect opacity="0.05" width="6.15444" height="13.9357" transform="matrix(0.932264 0.361779 -0.352827 0.935688 17.6309 -3)" fill="white"/>
<rect opacity="0.05" width="6.15444" height="13.9357" transform="matrix(0.932264 0.361779 -0.352827 0.935688 65.4524 -3)" fill="white"/>
<rect opacity="0.05" width="6.15444" height="13.9357" transform="matrix(0.932264 0.361779 -0.352827 0.935688 144.471 -3)" fill="white"/>
<rect opacity="0.05" width="6.15444" height="13.9357" transform="matrix(0.932264 0.361779 -0.352827 0.935688 97.0612 -3)" fill="white"/>
<rect opacity="0.05" width="6.15444" height="13.9357" transform="matrix(0.932264 0.361779 -0.352827 0.935688 160.274 -3)" fill="white"/>
<rect opacity="0.05" width="6.15444" height="13.9357" transform="matrix(0.932264 0.361779 -0.352827 0.935688 112.863 -3)" fill="white"/>
</g>
</svg>
